name D:\school\WTK\thesis\model\3dpredictsim\Results\MidTarsalJoint\Fal_s1_bCst_PF_Natali2010_ls150_MT_k300_MTP_T5_d00_ig24.mot
datacolumns 128
datarows 4
range 1.15515203 1.18980659
endheader
time	pelvis_tilt	pelvis_list	pelvis_rotation	pelvis_tx	pelvis_ty	pelvis_tz	hip_flexion_l	hip_adduction_l	hip_rotation_l	hip_flexion_r	hip_adduction_r	hip_rotation_r	knee_angle_l	knee_angle_r	ankle_angle_l	ankle_angle_r	subtalar_angle_l	subtalar_angle_r	mtj_angle_l	mtj_angle_r	mtp_angle_l	mtp_angle_r	lumbar_extension	lumbar_bending	lumbar_rotation	arm_flex_l	arm_add_l	arm_rot_l	arm_flex_r	arm_add_r	arm_rot_r	elbow_flex_l	elbow_flex_r	pro_sup_l	pro_sup_r	glut_med1_l/activation	glut_med2_l/activation	glut_med3_l/activation	glut_min1_l/activation	glut_min2_l/activation	glut_min3_l/activation	semimem_l/activation	semiten_l/activation	bifemlh_l/activation	bifemsh_l/activation	sar_l/activation	add_long_l/activation	add_brev_l/activation	add_mag1_l/activation	add_mag2_l/activation	add_mag3_l/activation	tfl_l/activation	pect_l/activation	grac_l/activation	glut_max1_l/activation	glut_max2_l/activation	glut_max3_l/activation	iliacus_l/activation	psoas_l/activation	quad_fem_l/activation	gem_l/activation	peri_l/activation	rect_fem_l/activation	vas_med_l/activation	vas_int_l/activation	vas_lat_l/activation	med_gas_l/activation	lat_gas_l/activation	soleus_l/activation	tib_post_l/activation	flex_dig_l/activation	flex_hal_l/activation	tib_ant_l/activation	per_brev_l/activation	per_long_l/activation	per_tert_l/activation	ext_dig_l/activation	ext_hal_l/activation	ercspn_l/activation	intobl_l/activation	extobl_l/activation	glut_med1_r/activation	glut_med2_r/activation	glut_med3_r/activation	glut_min1_r/activation	glut_min2_r/activation	glut_min3_r/activation	semimem_r/activation	semiten_r/activation	bifemlh_r/activation	bifemsh_r/activation	sar_r/activation	add_long_r/activation	add_brev_r/activation	add_mag1_r/activation	add_mag2_r/activation	add_mag3_r/activation	tfl_r/activation	pect_r/activation	grac_r/activation	glut_max1_r/activation	glut_max2_r/activation	glut_max3_r/activation	iliacus_r/activation	psoas_r/activation	quad_fem_r/activation	gem_r/activation	peri_r/activation	rect_fem_r/activation	vas_med_r/activation	vas_int_r/activation	vas_lat_r/activation	med_gas_r/activation	lat_gas_r/activation	soleus_r/activation	tib_post_r/activation	flex_dig_r/activation	flex_hal_r/activation	tib_ant_r/activation	per_brev_r/activation	per_long_r/activation	per_tert_r/activation	ext_dig_r/activation	ext_hal_r/activation	ercspn_r/activation	intobl_r/activation	extobl_r/activation	
          1.15515203	         -2.92683470	         -2.07883141	          5.83883317	          1.44394003	          0.91732542	         -0.00389533	        -17.06547024	         -0.81091265	          6.46341981	         29.46493103	          2.86752281	         -4.00162559	         -6.60086866	         -8.82633012	         -0.81385720	          7.16101355	          5.44235188	         -7.03741116	          4.54298646	         -0.16170782	         13.68913496	          0.70712818	         -2.02881604	          0.07056697	         -2.19726240	          6.13230270	        -13.44970729	         17.01303897	         -5.37717765	        -13.52816251	          8.33803242	         34.10881828	         15.90677354	         86.51662706	         86.51662706	          0.24463637	          0.10112050	          0.07851915	          0.27875165	          0.17863281	          0.11554758	          0.05000097	          0.05000025	          0.05000018	          0.05000084	          0.11807753	          0.05000018	          0.05000027	          0.05000028	          0.05000070	          0.05000043	          0.32101363	          0.05000148	          0.05000072	          0.05000248	          0.05000157	          0.05000096	          0.49806226	          0.69573365	          0.05000015	          0.05000051	          0.06227994	          0.34455106	          0.05381925	          0.05216155	          0.05000221	          0.29241592	          0.38834101	          0.32603345	          0.28484248	          0.25274443	          0.33417792	          0.05000005	          0.05962554	          0.08975345	          0.05000036	          0.05000009	          0.05000030	          0.05000000	          0.05000003	          0.05000019	          0.05962625	          0.05962626	          0.05000058	          0.05962628	          0.05962627	          0.05962582	          0.25792678	          0.09579426	          0.16720847	          0.10404197	          0.05000017	          0.14380356	          0.19033081	          0.17183582	          0.19312769	          0.11296836	          0.05000019	          0.05000189	          0.13674943	          0.05961825	          0.06495075	          0.15252994	          0.05000016	          0.05000009	          0.16840475	          0.25124761	          0.12136360	          0.05000009	          0.07381183	          0.07264207	          0.06606718	          0.06695903	          0.06349250	          0.06220792	          0.05000003	          0.05000024	          0.05000021	          0.46526873	          0.27348377	          0.19087124	          0.15585204	          0.48129068	          0.10137300	          0.05962624	          0.13011948	          0.11046391	
          1.16670355	         -2.93005775	         -2.17011308	          6.20601053	          1.46129150	          0.91637381	         -0.00372839	        -17.21099721	         -1.16677553	          6.27074674	         28.94337667	          3.20233691	         -3.76924796	         -8.05380955	         -9.44221535	         -1.27620883	          6.49824661	          6.36296280	         -7.36555527	          3.70388542	         -0.22787941	         15.56638636	          0.69226637	         -1.81816038	          0.24528510	         -2.27557090	          5.89329161	        -13.45274632	         17.32490076	         -6.36151643	        -13.51537678	          8.29000397	         35.46554654	         15.49974542	         86.51662706	         86.51662706	          0.20514152	          0.08479532	          0.06584285	          0.23374923	          0.14979379	          0.09689326	          0.05000259	          0.05000069	          0.05000055	          0.05000042	          0.09901493	          0.09989525	          0.05007874	          0.05962639	          0.05949987	          0.05962556	          0.26918824	          0.05306719	          0.05000581	          0.05000296	          0.05000232	          0.05000309	          0.41765349	          0.61678459	          0.05000101	          0.05001733	          0.05962637	          0.29083536	          0.14071243	          0.15212419	          0.14282777	          0.24520731	          0.32564597	          0.28201214	          0.25360864	          0.21194087	          0.28022757	          0.05000002	          0.05000013	          0.10030222	          0.05000010	          0.05000002	          0.05000014	          0.05000024	          0.07110585	          0.06175516	          0.05000001	          0.05000005	          0.09431810	          0.05000005	          0.05000006	          0.05000008	          0.21628624	          0.08032894	          0.14021379	          0.08724513	          0.07110816	          0.12058845	          0.25925894	          0.27900946	          0.16195084	          0.09473062	          0.05000041	          0.07117104	          0.11467258	          0.05000393	          0.05962774	          0.13989823	          0.05000145	          0.07110730	          0.53019899	          0.21068551	          0.10177044	          0.07110761	          0.08799444	          0.08774479	          0.07503154	          0.06683329	          0.07110500	          0.06011593	          0.05962632	          0.05266909	          0.05962645	          0.45415810	          0.25843996	          0.22879975	          0.13069127	          0.40358957	          0.17061515	          0.05000000	          0.10911256	          0.09263025	
          1.17825507	         -2.92958770	         -2.26421233	          6.54047556	          1.47899587	          0.91545480	         -0.00357895	        -17.35237805	         -1.53071540	          6.06401151	         28.32026755	          3.44251582	         -3.50294317	         -9.50849247	        -10.24050515	         -1.85151389	          5.89520423	          7.25935798	         -7.70941513	          2.73143387	         -0.35465524	         17.51272322	          0.73953183	         -1.58340975	          0.43267070	         -2.34118102	          5.56996951	        -13.45220604	         17.56944341	         -7.38637270	        -13.50794912	          8.28128913	         36.79100335	         15.16539349	         86.51662706	         86.51662706	          0.27136589	          0.07110576	          0.05521421	          0.29336722	          0.12561068	          0.08125056	          0.05000115	          0.05000025	          0.05000022	          0.05000027	          0.08303011	          0.08376789	          0.05000021	          0.05000049	          0.05000082	          0.05000091	          0.22573011	          0.05000079	          0.05000067	          0.05000664	          0.05000395	          0.05000204	          0.35022619	          0.61853054	          0.05000061	          0.05000129	          0.05000041	          0.24388197	          0.15874160	          0.15031339	          0.11979867	          0.20562022	          0.27307259	          0.23648315	          0.21266528	          0.17772452	          0.23498677	          0.05000003	          0.07216573	          0.12305967	          0.05000016	          0.05000008	          0.05000015	          0.05000002	          0.05962629	          0.05178522	          0.20882911	          0.19164007	          0.25499150	          0.30417501	          0.18612320	          0.23935936	          0.18136830	          0.06736586	          0.11757727	          0.08074202	          0.05962841	          0.10112033	          0.21740344	          0.23396533	          0.13580522	          0.11929820	          0.05000045	          0.05968225	          0.09729473	          0.05000020	          0.05000133	          0.12725743	          0.05962617	          0.05962754	          0.44460190	          0.17667183	          0.20130076	          0.05962777	          0.07378838	          0.07357903	          0.06291824	          0.05604352	          0.05962562	          0.05041062	          0.05000011	          0.05000050	          0.05000063	          0.50369698	          0.33369984	          0.19186161	          0.31266152	          0.49847352	          0.19725660	          0.05000046	          0.14617276	          0.07767572	
          1.18980659	         -2.92800477	         -2.35809785	          6.83380272	          1.49682737	          0.91461212	         -0.00339891	        -17.44920358	         -1.89610449	          5.85911488	         27.66998975	          3.65790345	         -3.23415063	        -11.01071327	        -11.01470701	         -2.54523542	          5.37626570	          8.12999200	         -8.05503750	          1.68199761	         -0.29569320	         19.41870234	          0.80244319	         -1.34968686	          0.63021215	         -2.39940260	          5.19841813	        -13.45630626	         17.77210232	         -8.39903390	        -13.50031380	          8.30312465	         38.06061773	         14.88162411	         86.51662706	         86.51662706	          0.27220473	          0.05962626	          0.05000011	          0.24600862	          0.10533174	          0.06813327	          0.05000153	          0.05000024	          0.05000017	          0.05000035	          0.06962584	          0.10774651	          0.05011309	          0.05000196	          0.05000240	          0.05000087	          0.18928776	          0.07110559	          0.05000136	          0.05000183	          0.05000121	          0.05000101	          0.29368457	          0.59858832	          0.05000020	          0.05000075	          0.05000023	          0.20450887	          0.18917561	          0.19088796	          0.16938142	          0.17242420	          0.22898683	          0.19830451	          0.17833193	          0.14903214	          0.19704977	          0.06446879	          0.06051773	          0.12080973	          0.05000109	          0.10175989	          0.05090494	          0.06558459	          0.05000003	          0.05000003	          0.29950181	          0.30202024	          0.33276359	          0.25506826	          0.22322081	          0.20574457	          0.15208761	          0.05649035	          0.09859525	          0.06770685	          0.05000272	          0.08479516	          0.18230513	          0.19619330	          0.11388063	          0.14664876	          0.05000078	          0.05004727	          0.08158731	          0.19594482	          0.15743119	          0.14911375	          0.05000012	          0.05000111	          0.37282392	          0.14814942	          0.16880228	          0.05000130	          0.06895706	          0.07191736	          0.06364269	          0.05000004	          0.05000012	          0.05000002	          0.05000021	          0.05000037	          0.05000040	          0.58620917	          0.35879966	          0.21448739	          0.34520979	          0.52156288	          0.28886562	          0.07347212	          0.12257416	          0.06513550	
